<svg 
    xmlns="http://www.w3.org/2000/svg" 
    xmlns:xlink="http://www.w3.org/1999/xlink" 
    width="100" 
    zoomAndPan="magnify" 
    viewBox="0 0 300 300" 
    height="100" 
    preserveAspectRatio="xMidYMid meet" 
    version="1.0">
    <defs><g/><clipPath id="442e64a106">
    <path d="M 80.910156 54.304688 L 95.683594 54.304688 L 95.683594 285.554688 L 80.910156 285.554688 Z M 80.910156 
    54.304688 " clip-rule="nonzero"/>
    </clipPath><clipPath id="f134fb33dc">
    <path d="M 250.792969 54.304688 L 265.5625 54.304688 L 265.5625 285.628906 L 250.792969 285.628906 Z M 250.792969 
    54.304688 " clip-rule="nonzero"/>
    </clipPath><clipPath id="0c8c0a18d3">
    <path d="M 187 191 L 262 191 L 262 286 L 187 286 Z M 187 191 " clip-rule="nonzero"/>
    </clipPath><clipPath id="bd12b0aadc">
    <path d="M 261.269531 278.125 L 251.125 285.628906 L 187.09375 199.082031 L 197.238281 191.578125 Z M 261.269531 278.125 " 
    clip-rule="nonzero"/></clipPath><clipPath id="da04d49066">
    <path d="M 261.269531 278.125 L 251.125 285.628906 L 187.113281 199.109375 L 197.257812 191.601562 Z M 261.269531 278.125 "
    clip-rule="nonzero"/></clipPath><clipPath id="77a12726c2"><path d="M 85 191 L 162 191 L 162 286 L 85 286 Z M 85 191 " 
    clip-rule="nonzero"/></clipPath><clipPath id="4b130332f3">
    <path d="M 95.875 285.554688 L 85.539062 277.714844 L 150.851562 191.585938 L 161.1875 199.425781 Z M 95.875 285.554688 " 
    clip-rule="nonzero"/></clipPath><clipPath id="6091047a3e">
    <path d="M 95.875 285.554688 L 85.539062 277.714844 L 150.835938 191.601562 L 161.175781 199.441406 Z M 95.875 285.554688 " 
    clip-rule="nonzero"/></clipPath><clipPath id="0373fc89f1"><path d="M 194 54 L 262 54 L 262 141 L 194 141 Z M 194 54 " 
    clip-rule="nonzero"/></clipPath><clipPath id="6c841ad806">
    <path d="M 204.449219 140.96875 L 194.191406 133.617188 L 251.03125 54.273438 L 261.289062 61.621094 Z M 204.449219 
    140.96875 " clip-rule="nonzero"/></clipPath><clipPath id="9b8dd8850d">
    <path d="M 204.449219 140.96875 L 194.191406 133.617188 L 251.015625 54.292969 L 261.273438 61.640625 Z M 
    204.449219 140.96875 " clip-rule="nonzero"/></clipPath><clipPath id="372e7faab0">
    <path d="M 85 54 L 155 54 L 155 141 L 85 141 Z M 85 54 " clip-rule="nonzero"/></clipPath><clipPath id="a014d9cf23">
    <path d="M 154.246094 133.46875 L 144.101562 140.972656 L 85.519531 61.796875 L 95.664062 54.289062 Z M 154.246094 
    133.46875 " clip-rule="nonzero"/></clipPath><clipPath id="9897261027">
    <path d="M 154.246094 133.46875 L 144.101562 140.972656 L 85.527344 61.804688 L 95.671875 54.296875 Z M 154.246094 
    133.46875 " clip-rule="nonzero"/></clipPath></defs><g clip-path="url(#442e64a106)">
    <path fill="#5f676f" d="M 80.910156 54.304688 L 95.683594 54.304688 L 95.683594 285.53125 L 80.910156 285.53125 Z M 
    80.910156 54.304688 " fill-opacity="1" fill-rule="nonzero"/></g><g clip-path="url(#f134fb33dc)">
    <path fill="#5f676f" d="M 250.792969 54.304688 L 265.5625 54.304688 L 265.5625 285.648438 L 250.792969 285.648438 Z M 
    250.792969 54.304688 " fill-opacity="1" fill-rule="nonzero"/></g><g clip-path="url(#0c8c0a18d3)">
    <g clip-path="url(#bd12b0aadc)"><g clip-path="url(#da04d49066)">
    <path fill="#5f676f" d="M 261.269531 278.125 L 251.125 285.628906 L 187.121094 199.121094 L 197.265625 191.617188 Z M 
    261.269531 278.125 " fill-opacity="1" fill-rule="nonzero"/></g></g></g><g clip-path="url(#77a12726c2)">
    <g clip-path="url(#4b130332f3)"><g clip-path="url(#6091047a3e)">
    <path fill="#5f676f" d="M 95.875 285.554688 L 85.539062 277.714844 L 150.851562 191.585938 L 161.1875 199.425781 Z M 95.875 
    285.554688 " fill-opacity="1" fill-rule="nonzero"/></g></g></g><g clip-path="url(#0373fc89f1)">
    <g clip-path="url(#6c841ad806)"><g clip-path="url(#9b8dd8850d)">
    <path fill="#5f676f" d="M 204.449219 140.96875 L 194.191406 133.617188 L 251.003906 54.3125 L 261.261719 61.660156 Z M 
    204.449219 140.96875 " fill-opacity="1" fill-rule="nonzero"/></g></g></g><g clip-path="url(#372e7faab0)">
    <g clip-path="url(#a014d9cf23)"><g clip-path="url(#9897261027)">
    <path fill="#5f676f" d="M 154.246094 133.46875 L 144.101562 140.972656 L 85.519531 61.796875 L 95.664062 54.289062 Z M 
    154.246094 133.46875 " fill-opacity="1" fill-rule="nonzero"/></g></g></g><g fill="#a2ff00" fill-opacity="1">
    <g transform="translate(111.213534, 223.178515)"><g><path d="M 118.609375 -66.15625 C 118.609375 -59.789062 117.945312 
    -53.539062 116.625 -47.40625 C 115.1875 -41.15625 113.085938 -35.328125 110.328125 -29.921875 C 107.441406 -24.390625 
    103.894531 -19.460938 99.6875 -15.140625 C 95.476562 -10.816406 90.550781 -7.390625 84.90625 -4.859375 L 99.859375 18.75 L 
    71.390625 18.75 L 59.671875 -0.1875 C 50.648438 -0.539062 42.773438 -2.640625 36.046875 -6.484375 C 29.203125 -10.335938 
    23.554688 -15.382812 19.109375 -21.625 C 14.546875 -27.757812 11.117188 -34.734375 8.828125 -42.546875 C 6.546875 
    -50.234375 5.40625 -58.101562 5.40625 -66.15625 C 5.40625 -74.445312 6.609375 -82.5625 9.015625 -90.5 C 11.296875 
    -98.300781 14.84375 -105.328125 19.65625 -111.578125 C 24.332031 -117.710938 30.21875 -122.703125 37.3125 -126.546875 C 
    44.40625 -130.273438 52.640625 -132.140625 62.015625 -132.140625 C 71.503906 -132.140625 79.796875 -130.273438 86.890625 
    -126.546875 C 93.984375 -122.703125 99.867188 -117.710938 104.546875 -111.578125 C 109.234375 -105.328125 112.78125 
    -98.300781 115.1875 -90.5 C 117.46875 -82.5625 118.609375 -74.445312 118.609375 -66.15625 Z M 62.015625 -113.390625 C 
    59.609375 -113.390625 57.320312 -112.488281 55.15625 -110.6875 C 52.875 -108.882812 50.832031 -106.054688 49.03125 
    -102.203125 C 47.226562 -98.359375 45.785156 -93.492188 44.703125 -87.609375 C 43.617188 -81.597656 43.078125 -74.445312 
    43.078125 -66.15625 C 43.078125 -57.863281 43.617188 -50.773438 44.703125 -44.890625 C 45.785156 -38.878906 47.226562 
    -33.953125 49.03125 -30.109375 C 50.832031 -26.253906 52.875 -23.425781 55.15625 -21.625 C 57.320312 -19.820312 59.609375 
    -18.921875 62.015625 -18.921875 C 64.296875 -18.921875 66.578125 -19.820312 68.859375 -21.625 C 71.140625 -23.425781 
    73.179688 -26.253906 74.984375 -30.109375 C 76.785156 -33.953125 78.226562 -38.878906 79.3125 -44.890625 C 80.394531 
    -50.773438 80.9375 -57.863281 80.9375 -66.15625 C 80.9375 -74.445312 80.394531 -81.597656 79.3125 -87.609375 C 78.226562 
    -93.492188 76.785156 -98.359375 74.984375 -102.203125 C 73.179688 -106.054688 71.140625 -108.882812 68.859375 -110.6875 C 
    66.578125 -112.488281 64.296875 -113.390625 62.015625 -113.390625 Z M 62.015625 -113.390625 "/>
    </g>
    </g>
    </g>
</svg>